<?xml version="1.0" standalone="no"?>
<!DOCTYPE svg PUBLIC "-//W3C//DTD SVG 20010904//EN"
 "http://www.w3.org/TR/2001/REC-SVG-20010904/DTD/svg10.dtd">
<svg version="1.0" xmlns="http://www.w3.org/2000/svg"
 width="1100.000000pt" height="733.000000pt" viewBox="0 0 1100.000000 733.000000"
 preserveAspectRatio="xMidYMid meet">
<metadata>
Created by potrace 1.16, written by Peter Selinger 2001-2019
</metadata>
<g transform="translate(0.000000,733.000000) scale(0.100000,-0.100000)"
fill="#000000" stroke="none">
<path d="M5295 5908 c-121 -5 -226 -11 -232 -13 -9 -3 -13 -31 -13 -95 0 -65
3 -90 13 -91 6 0 47 0 89 1 93 2 84 20 93 -210 15 -445 26 -673 32 -683 7 -11
202 -2 214 10 4 4 4 98 -1 208 -21 452 -29 668 -25 675 3 4 43 11 90 15 l85 7
0 56 c0 32 -3 74 -6 95 l-7 37 -56 -2 c-31 0 -155 -5 -276 -10z"/>
<path d="M6194 5821 c-67 -41 -77 -64 -173 -436 -17 -66 -47 -181 -66 -255
-46 -172 -51 -209 -35 -265 15 -52 64 -99 120 -116 101 -29 249 -67 282 -73
82 -15 169 34 200 113 20 50 208 773 208 800 0 35 -22 92 -47 122 -34 40 -65
53 -230 95 -152 39 -214 42 -259 15z m271 -175 c45 -19 45 -27 -4 -213 -22
-81 -60 -229 -86 -328 -72 -284 -66 -274 -156 -249 -93 27 -93 27 -44 216 117
450 148 564 157 582 8 15 17 17 54 12 24 -3 59 -12 79 -20z"/>
<path d="M4350 5766 c-67 -19 -196 -75 -225 -98 -14 -11 -35 -38 -46 -60 -19
-36 -23 -39 -47 -32 -62 20 -134 10 -231 -31 -177 -75 -214 -141 -165 -293 11
-35 140 -349 306 -747 16 -38 33 -74 38 -79 5 -5 46 6 102 29 107 44 115 49
101 67 -5 7 -27 56 -47 108 -21 52 -44 109 -51 125 -14 32 -159 383 -215 521
-18 45 -30 89 -27 98 7 18 87 56 118 56 10 0 25 -10 33 -22 14 -22 128 -294
273 -653 36 -88 71 -166 78 -173 10 -11 29 -6 106 27 51 22 95 44 96 48 2 5
-73 194 -167 421 -93 227 -170 420 -170 430 0 26 12 38 54 56 46 19 80 21 94
4 5 -7 31 -65 57 -128 26 -63 73 -179 106 -257 32 -79 86 -209 120 -290 34
-82 66 -153 73 -160 8 -9 34 -2 106 27 52 21 96 43 98 48 1 5 -20 62 -49 128
-28 65 -72 173 -99 239 -67 168 -173 421 -199 476 -26 55 -74 102 -120 118
-40 13 -43 13 -101 -3z"/>
<path d="M7281 5413 c-28 -46 -125 -197 -284 -443 -142 -220 -267 -418 -267
-424 0 -12 171 -118 183 -113 8 3 59 77 115 165 56 88 109 165 116 172 12 9
27 3 76 -30 104 -71 168 -100 217 -100 82 0 123 36 229 200 83 130 106 180
106 235 0 76 -35 120 -158 198 -39 25 -117 75 -173 112 -57 36 -109 69 -117
72 -8 3 -24 -14 -43 -44z m211 -242 c51 -32 69 -57 59 -82 -17 -43 -157 -248
-173 -252 -19 -5 -138 66 -138 83 0 5 22 42 48 82 26 40 66 101 88 135 21 35
46 63 55 63 8 0 36 -13 61 -29z"/>
<path d="M2960 4973 c-19 -8 -92 -72 -162 -142 -104 -103 -129 -134 -138 -169
-13 -51 -6 -97 23 -145 12 -20 144 -160 292 -313 325 -334 355 -353 463 -304
41 19 233 196 274 253 48 67 41 149 -16 224 -18 24 -150 162 -294 308 -267
272 -308 305 -377 304 -16 0 -46 -7 -65 -16z m232 -400 c303 -308 338 -345
338 -370 0 -20 -58 -85 -96 -106 -22 -13 -42 4 -168 135 -65 67 -183 189 -262
269 -79 80 -144 154 -144 164 0 21 91 115 112 115 8 0 107 -93 220 -207z"/>
<path d="M8100 4663 c-63 -58 -173 -161 -245 -228 -71 -66 -195 -181 -275
-255 -80 -74 -146 -140 -148 -147 -4 -14 125 -163 141 -163 10 0 2 -7 471 428
179 167 326 305 326 308 0 9 -142 164 -149 164 -3 -1 -58 -49 -121 -107z"/>
<path d="M6345 4299 c-11 -5 -227 -56 -480 -114 -253 -58 -478 -109 -500 -115
-281 -67 -271 -67 -431 -35 -77 15 -206 40 -287 56 -82 16 -157 29 -167 29
-13 0 -46 -48 -115 -167 -54 -93 -110 -188 -125 -213 -15 -25 -45 -76 -66
-115 -61 -113 -10 -55 148 167 77 109 146 198 152 198 12 0 18 -8 261 -315 87
-110 161 -204 166 -209 5 -6 267 -11 370 -7 9 1 80 51 159 111 78 61 144 110
147 110 17 0 -34 -51 -395 -389 -221 -207 -280 -267 -270 -276 12 -11 375 -95
410 -95 10 0 172 177 390 427 668 764 649 744 667 715 7 -11 146 -172 226
-262 84 -94 169 -191 246 -281 220 -255 661 -759 670 -764 33 -21 -14 48 -231
340 -264 355 -872 1188 -877 1200 -6 17 -38 19 -68 4z"/>
<path d="M8603 4086 c-23 -8 -75 -32 -115 -54 -40 -22 -127 -68 -193 -102 -66
-35 -138 -73 -160 -85 -22 -12 -112 -60 -200 -106 -88 -45 -163 -87 -167 -92
-7 -11 85 -190 101 -195 5 -2 34 10 63 26 220 121 248 134 264 121 22 -18 76
-129 70 -144 -2 -7 -58 -40 -123 -73 -165 -84 -183 -95 -182 -112 1 -22 94
-185 105 -183 10 2 591 307 754 396 118 65 152 107 153 188 1 43 -9 70 -69
187 -114 224 -172 268 -301 228z m122 -222 c9 -9 27 -38 41 -65 30 -59 24 -77
-38 -109 -24 -12 -97 -51 -163 -85 -67 -35 -126 -61 -132 -57 -20 13 -86 143
-77 152 14 14 328 179 341 179 6 1 19 -6 28 -15z"/>
<path d="M2212 4044 c-47 -24 -80 -72 -155 -223 -73 -147 -83 -199 -51 -267
26 -54 90 -91 579 -337 208 -105 248 -119 297 -108 80 18 104 46 197 231 61
121 71 148 71 193 0 86 -38 130 -170 200 -36 18 -190 98 -343 176 -241 124
-285 144 -335 147 -41 4 -66 0 -90 -12z m381 -368 c177 -90 335 -176 351 -190
l28 -26 -34 -62 c-24 -43 -42 -64 -56 -66 -13 -2 -102 38 -214 96 -106 55
-258 133 -336 173 -79 41 -148 82 -153 91 -7 13 -2 32 17 70 33 65 43 78 61
78 8 0 159 -74 336 -164z"/>
<path d="M6321 3948 c-71 -79 -243 -285 -253 -302 -10 -18 -8 -18 17 2 14 12
81 72 147 134 66 62 125 115 130 117 5 2 87 -74 182 -168 164 -162 207 -199
172 -149 -30 42 -349 398 -357 398 -5 0 -22 -15 -38 -32z"/>
<path d="M6154 3487 c-3 -8 -4 -47 -2 -88 l3 -74 90 0 90 0 0 85 0 85 -88 3
c-67 2 -89 0 -93 -11z"/>
<path d="M6378 3448 c-1 -29 -2 -70 0 -90 l3 -38 90 0 89 0 0 90 0 90 -89 0
-89 0 -4 -52z"/>
<path d="M6163 3273 c-9 -3 -13 -31 -13 -89 l0 -85 93 3 92 3 3 73 c2 46 -2
79 -9 88 -11 14 -137 19 -166 7z"/>
<path d="M6387 3274 c-4 -4 -7 -45 -7 -91 l0 -83 90 0 91 0 -3 88 -3 87 -80 3
c-45 1 -84 0 -88 -4z"/>
<path d="M3964 2995 c-117 -18 -139 -34 -47 -35 39 0 93 -4 120 -10 26 -5 120
-24 208 -40 88 -17 192 -40 230 -51 85 -25 503 -159 635 -204 304 -104 654
-196 905 -240 161 -27 264 -36 455 -38 266 -2 423 23 671 106 103 34 262 108
304 141 l20 15 -20 1 c-11 0 -42 -7 -69 -15 -28 -8 -77 -20 -110 -26 -34 -6
-83 -15 -111 -20 -206 -37 -564 -51 -773 -29 -53 5 -146 15 -207 21 -60 6
-126 14 -145 19 -19 4 -69 13 -110 20 -41 7 -136 28 -210 47 -74 19 -166 43
-205 53 -38 9 -124 34 -190 54 -66 21 -151 47 -190 57 -38 11 -83 24 -100 29
-144 42 -372 97 -528 125 -158 30 -209 35 -320 34 -73 -1 -169 -7 -213 -14z"/>
<path d="M8960 2980 c-19 -5 -69 -14 -110 -20 -41 -6 -95 -15 -120 -20 -25 -5
-79 -13 -120 -20 -41 -6 -97 -15 -125 -20 -27 -5 -88 -14 -135 -21 -47 -7
-112 -18 -145 -24 l-60 -12 2 -39 c3 -54 25 -174 33 -179 4 -2 82 8 173 24 91
15 171 25 177 21 13 -8 36 -141 27 -162 -3 -10 -33 -19 -84 -28 -43 -7 -116
-18 -162 -26 -46 -8 -88 -14 -94 -14 -6 0 -7 -20 -3 -52 22 -182 21 -180 69
-168 18 4 70 13 117 19 47 7 108 16 135 21 123 22 184 32 395 66 144 23 243
45 276 59 94 41 115 113 86 285 -7 41 -17 100 -22 130 -23 134 -84 190 -205
189 -38 -1 -86 -5 -105 -9z m148 -219 c19 -12 43 -130 31 -153 -10 -18 -13
-19 -114 -37 -240 -42 -265 -45 -279 -30 -16 16 -39 150 -28 161 4 4 63 16
132 28 69 11 145 25 170 29 62 12 73 12 88 2z"/>
<path d="M1842 2957 c-78 -29 -109 -87 -132 -247 -15 -106 -28 -188 -42 -263
-6 -32 -8 -60 -6 -63 6 -5 180 -35 433 -73 77 -12 165 -26 195 -31 59 -10 142
-23 260 -40 41 -7 97 -16 123 -22 39 -8 52 -8 62 3 15 15 40 181 32 203 -3 8
-28 17 -59 21 -29 3 -78 10 -108 15 -30 6 -100 17 -155 26 -55 9 -103 21 -107
27 -8 13 0 78 13 115 12 32 16 32 241 -4 86 -14 169 -24 185 -22 27 3 29 7 40
78 6 41 12 89 12 106 l1 31 -112 17 c-62 10 -135 21 -163 26 -152 27 -182 29
-217 20 -20 -6 -41 -17 -48 -25 -19 -23 -30 -19 -67 24 -36 43 -77 58 -211 80
-88 14 -127 13 -170 -2z m257 -243 c75 -14 107 -34 97 -61 -3 -7 -8 -35 -12
-62 -4 -28 -12 -52 -20 -55 -8 -3 -80 6 -160 19 -80 14 -148 25 -151 25 -9 0
7 122 19 143 9 17 17 19 80 12 39 -3 105 -13 147 -21z"/>
<path d="M3520 2850 c-77 -10 -185 -36 -219 -55 -22 -11 -7 -14 124 -19 361
-16 575 -75 1180 -326 320 -133 692 -256 960 -319 476 -111 1040 -119 1430
-20 207 52 432 147 604 254 99 61 107 82 18 46 -112 -44 -350 -109 -522 -142
-244 -47 -621 -55 -935 -20 -107 12 -200 23 -207 26 -6 2 -56 11 -110 20 -119
21 -441 101 -578 145 -55 18 -122 39 -150 48 -123 37 -387 127 -455 154 -209
83 -419 147 -600 185 -100 20 -161 26 -300 28 -96 2 -204 0 -240 -5z"/>
<path d="M5426 1353 c-3 -3 -6 -33 -6 -66 0 -57 -1 -59 -22 -52 -60 19 -75 17
-107 -12 -63 -57 -49 -178 24 -209 33 -13 40 -13 68 1 20 10 33 12 35 5 2 -5
10 -10 18 -10 11 0 14 30 14 169 0 154 -5 192 -24 174z m-36 -151 c15 -12 24
-33 27 -62 12 -110 -112 -142 -132 -34 -8 42 8 87 36 101 32 17 43 16 69 -5z"/>
<path d="M5865 1331 c-8 -14 -10 -306 -1 -319 10 -16 182 -16 192 -1 12 19
-19 29 -94 29 l-73 0 3 58 3 57 58 5 c77 7 77 24 0 28 l-63 3 0 54 0 55 80 0
c73 0 80 2 80 20 0 19 -7 20 -89 20 -50 0 -92 -4 -96 -9z"/>
<path d="M3033 1320 c-28 -12 -43 -40 -43 -84 0 -44 34 -72 96 -82 51 -7 74
-25 74 -58 0 -57 -85 -76 -138 -31 -35 30 -55 16 -25 -17 31 -36 78 -50 123
-38 47 13 70 42 70 90 -1 57 -41 90 -110 90 -56 0 -82 64 -38 94 30 22 70 20
100 -4 26 -20 38 -18 38 6 0 33 -95 55 -147 34z"/>
<path d="M3663 1238 c-30 -14 -38 -38 -13 -38 10 0 22 5 25 10 12 20 64 11 81
-15 21 -33 11 -44 -34 -38 -31 4 -44 0 -70 -22 -38 -31 -42 -70 -12 -102 28
-30 56 -37 89 -20 26 13 31 13 45 -1 14 -14 16 -14 22 1 3 9 4 55 3 103 -4 79
-6 87 -32 110 -30 25 -67 30 -104 12z"/>
<path d="M3965 1228 c3 -12 22 -71 41 -129 19 -59 34 -110 34 -114 0 -4 -14
-20 -31 -36 -29 -27 -32 -49 -5 -49 28 0 57 52 100 184 50 150 53 166 33 166
-8 0 -25 -37 -42 -91 -16 -50 -33 -92 -37 -95 -4 -3 -20 37 -36 88 -20 68 -33
94 -46 96 -15 3 -17 -1 -11 -20z"/>
<path d="M4559 1231 c-31 -25 -18 -37 20 -21 38 15 72 7 89 -21 16 -25 2 -40
-29 -32 -80 21 -150 -90 -84 -133 14 -9 35 -15 47 -14 13 0 43 1 66 2 l44 0
-4 95 c-3 89 -5 96 -31 119 -34 29 -85 32 -118 5z"/>
<path d="M4890 1130 c0 -100 3 -120 15 -120 12 0 15 14 15 70 0 82 18 127 56
136 19 5 31 1 47 -14 17 -17 21 -37 25 -107 3 -63 8 -85 18 -85 11 0 14 19 14
83 0 91 -12 124 -52 146 -23 13 -32 13 -63 2 -27 -9 -40 -10 -48 -2 -23 23
-27 7 -27 -109z"/>
<path d="M6264 1187 l36 -63 -35 -53 c-19 -29 -33 -57 -30 -61 10 -15 33 1 54
36 25 42 45 43 61 4 16 -39 37 -57 52 -42 7 7 1 23 -21 55 -38 56 -39 71 -1
127 34 51 36 60 15 60 -8 0 -26 -18 -40 -40 -14 -22 -30 -40 -35 -40 -5 0 -20
18 -32 40 -13 23 -31 40 -41 40 -15 0 -13 -9 17 -63z"/>
<path d="M6590 1075 c0 -149 2 -175 15 -175 12 0 15 14 15 65 0 36 2 65 3 65
2 0 18 -7 35 -15 67 -34 132 20 132 108 0 70 -27 114 -75 123 -25 4 -42 1 -60
-10 -30 -20 -35 -20 -35 -1 0 8 -7 15 -15 15 -13 0 -15 -26 -15 -175z m145
120 c33 -32 35 -101 5 -133 -62 -66 -153 28 -108 111 27 51 66 60 103 22z"/>
<path d="M7232 1234 c-93 -65 -55 -224 54 -224 86 0 134 106 84 188 -31 50
-94 67 -138 36z m83 -20 c8 -4 22 -19 30 -35 34 -65 2 -139 -59 -139 -37 0
-61 21 -71 63 -19 73 37 135 100 111z"/>
<path d="M7892 1234 c-52 -36 -68 -123 -32 -181 35 -58 125 -62 170 -8 16 20
16 20 -67 -2 -38 -9 -70 5 -83 36 -6 17 -9 35 -5 40 3 6 40 11 86 11 78 0 79
0 79 26 0 36 -16 61 -50 79 -37 19 -70 19 -98 -1z"/>
</g>
</svg>
